<svg width="24" height="24" viewBox="0 0 24 24" fill="none" xmlns="http://www.w3.org/2000/svg">
<path fill-rule="evenodd" clip-rule="evenodd" d="M11.7664 3.77803C7.35443 3.77803 3.77783 7.35463 3.77783 11.7666C3.77783 16.1785 7.35443 19.7551 11.7664 19.7551C16.1784 19.7551 19.7549 16.1785 19.7549 11.7666C19.7549 7.35463 16.1784 3.77803 11.7664 3.77803ZM1.77783 11.7666C1.77783 6.25006 6.24986 1.77803 11.7664 1.77803C17.2829 1.77803 21.7549 6.25006 21.7549 11.7666C21.7549 17.2831 17.2829 21.7551 11.7664 21.7551C6.24986 21.7551 1.77783 17.2831 1.77783 11.7666Z" fill="#007AFF"/>
<path fill-rule="evenodd" clip-rule="evenodd" d="M17.31 17.7789C17.7001 17.3879 18.3332 17.3871 18.7243 17.7771L22.2483 21.292C22.6393 21.682 22.6401 22.3152 22.2501 22.7062C21.8601 23.0972 21.2269 23.098 20.8359 22.708L17.3119 19.1931C16.9208 18.8031 16.92 18.17 17.31 17.7789Z" fill="#007AFF"/>
</svg>
