<svg width="237" height="37" viewBox="0 0 237 37" fill="none" xmlns="http://www.w3.org/2000/svg">
<rect x="29.2192" y="15" width="4.32877" height="7" rx="2.16438" fill="#007AFF"/>
<rect x="35.7124" y="7" width="3.24658" height="23" rx="1.62329" fill="#007AFF"/>
<rect x="41.123" width="3.24658" height="37" rx="1.62329" fill="#007AFF"/>
<rect x="46.5342" y="7" width="4.32877" height="23" rx="2.16438" fill="#007AFF"/>
<rect x="53.0273" y="15" width="3.24658" height="7" rx="1.62329" fill="#007AFF"/>
<rect x="58.4385" y="7" width="3.24658" height="23" rx="1.62329" fill="#007AFF"/>
<rect x="64.9316" width="3.24658" height="37" rx="1.62329" fill="#007AFF"/>
<rect x="70.3423" y="7" width="3.24658" height="23" rx="1.62329" fill="#007AFF"/>
<rect x="76.8354" y="15" width="2.16438" height="7" rx="1.08219" fill="#007AFF"/>
<rect x="82.2466" y="11" width="3.24658" height="15" rx="1.62329" fill="#007AFF"/>
<rect x="94.1509" y="11" width="2.16438" height="15" rx="1.08219" fill="#007AFF"/>
<rect x="87.6577" y="3" width="3.24658" height="31" rx="1.62329" fill="#007AFF"/>
<rect y="15" width="4.32877" height="7" rx="2.16438" fill="#007AFF"/>
<rect x="5.41113" y="7" width="4.32877" height="23" rx="2.16438" fill="#007AFF"/>
<rect x="11.9043" width="3.24658" height="37" rx="1.62329" fill="#007AFF"/>
<rect x="17.3149" y="7" width="4.32877" height="23" rx="2.16438" fill="#007AFF"/>
<rect x="23.8081" y="15" width="3.24658" height="7" rx="1.62329" fill="#007AFF"/>
<rect x="99.5615" y="15" width="3.24658" height="7" rx="1.62329" fill="black"/>
<rect x="104.973" y="7" width="3.24658" height="23" rx="1.62329" fill="black"/>
<rect x="111.466" width="2.16438" height="37" rx="1.08219" fill="black"/>
<rect x="116.877" y="7" width="3.24658" height="23" rx="1.62329" fill="black"/>
<rect x="192.63" y="7" width="3.24658" height="23" rx="1.62329" fill="black"/>
<rect x="122.288" y="15" width="3.24658" height="7" rx="1.62329" fill="black"/>
<rect x="198.041" y="15" width="3.24658" height="7" rx="1.62329" fill="black"/>
<rect x="221.849" y="13" width="3.24658" height="11" rx="1.62329" fill="black"/>
<rect x="227.26" y="15" width="4.32877" height="7" rx="2.16438" fill="black"/>
<rect x="232.671" y="16" width="4.32877" height="5" rx="2.16438" fill="black"/>
<rect x="128.781" y="7" width="3.24658" height="23" rx="1.62329" fill="black"/>
<rect x="203.452" y="7" width="4.32877" height="23" rx="2.16438" fill="black"/>
<rect x="168.822" y="7" width="3.24658" height="23" rx="1.62329" fill="black"/>
<rect x="134.192" width="3.24658" height="37" rx="1.62329" fill="black"/>
<rect x="209.945" width="3.24658" height="37" rx="1.62329" fill="black"/>
<rect x="177.479" width="3.24658" height="37" rx="1.62329" fill="black"/>
<rect x="140.685" y="7" width="2.16438" height="23" rx="1.08219" fill="black"/>
<rect x="215.356" y="7" width="4.32877" height="23" rx="2.16438" fill="black"/>
<rect x="180.726" y="7" width="3.24658" height="23" rx="1.62329" fill="black"/>
<rect x="146.096" y="15" width="3.24658" height="7" rx="1.62329" fill="black"/>
<rect x="151.507" y="11" width="3.24658" height="15" rx="1.62329" fill="black"/>
<rect x="158" y="3" width="2.16438" height="31" rx="1.08219" fill="black"/>
<rect x="158" y="3" width="2.16438" height="31" rx="1.08219" fill="black"/>
<rect x="163.411" y="16" width="3.24658" height="5" rx="1.62329" fill="black"/>
<rect x="186.137" y="16" width="4.32877" height="5" rx="2.16438" fill="black"/>
</svg>
