<svg width="24" height="27" viewBox="0 0 24 27" fill="none" xmlns="http://www.w3.org/2000/svg">
<path fill-rule="evenodd" clip-rule="evenodd" d="M5.4971 13.6879C5.50762 12.1473 6.63197 10.9068 8.01075 10.9146C9.38954 10.9224 10.5026 12.1755 10.4991 13.7162C10.4957 15.2568 9.37698 16.5037 7.99818 16.5037C7.33205 16.502 6.69394 16.2041 6.2247 15.6758C5.75546 15.1475 5.49368 14.4322 5.4971 13.6879V13.6879Z" stroke="#007AFF" stroke-width="1.5" stroke-linecap="round" stroke-linejoin="round"/>
<path d="M14.0015 10.8933C13.9003 10.8927 13.8087 10.9604 13.7695 11.0648C13.7304 11.1692 13.7515 11.2896 13.8229 11.3699C13.8943 11.4501 14.002 11.4743 14.0956 11.4311C14.1892 11.3879 14.2503 11.2859 14.2503 11.1728C14.2508 11.0987 14.2248 11.0276 14.1781 10.9751C14.1314 10.9226 14.0678 10.8932 14.0015 10.8933" stroke="#007AFF" stroke-width="1.5" stroke-linecap="round" stroke-linejoin="round"/>
<path d="M17.1139 10.8933C17.0126 10.8927 16.921 10.9604 16.8818 11.0648C16.8427 11.1692 16.8638 11.2896 16.9352 11.3699C17.0066 11.4501 17.1143 11.4743 17.2079 11.4311C17.3015 11.3879 17.3626 11.2859 17.3626 11.1728C17.3631 11.0987 17.3371 11.0276 17.2904 10.9751C17.2437 10.9226 17.1801 10.8932 17.1139 10.8933" stroke="#007AFF" stroke-width="1.5" stroke-linecap="round" stroke-linejoin="round"/>
<path fill-rule="evenodd" clip-rule="evenodd" d="M2.99609 22.7703V22.0717C3.00013 20.5302 4.11752 19.2816 5.49714 19.2771H10.4992C11.8788 19.2816 12.9962 20.5302 13.0003 22.0717V22.7703C12.9992 23.1557 12.7199 23.4679 12.375 23.469H3.62135C3.27645 23.4679 2.9971 23.1557 2.99609 22.7703V22.7703Z" stroke="#007AFF" stroke-width="1.5" stroke-linecap="round" stroke-linejoin="round"/>
<path d="M8.27539 6.70145C10.0324 3.89132 13.2233 2.68854 16.1447 3.73512C19.0662 4.78169 21.0363 7.83331 21.0035 11.2611C20.9707 14.689 18.9426 17.6928 16.0018 18.6693" stroke="#007AFF" stroke-width="1.5" stroke-linecap="round" stroke-linejoin="round"/>
</svg>
