<svg width="393" height="85" viewBox="0 0 393 85" fill="none" xmlns="http://www.w3.org/2000/svg">
<path d="M130 74.5C130 73.1193 131.119 72 132.5 72H261.5C262.881 72 264 73.1193 264 74.5C264 75.8807 262.881 77 261.5 77H132.5C131.119 77 130 75.8807 130 74.5Z" fill="#131313"/>
<path d="M214.75 48.6611V30.9688C214.75 30.2607 215.288 29.75 215.875 29.75H227.125C227.712 29.75 228.25 30.2607 228.25 30.9688V48.6611L221.892 44.7667L221.5 44.5267L221.108 44.7667L214.75 48.6611Z" stroke="#007AFF" stroke-width="1.5"/>
<path d="M0 25C0 11.1929 11.1929 0 25 0H368C381.807 0 393 11.1929 393 25V85H0V25Z" fill="#007AFF"/>
</svg>
