<svg width="18" height="22" viewBox="0 0 18 22" fill="none" xmlns="http://www.w3.org/2000/svg">
<path d="M8.90681 10.2366C6.8946 10.2366 5.10691 8.36828 5.10691 5.90106H3.58003C3.58003 9.04802 5.8966 11.7634 8.90681 11.7634V10.2366ZM5.10691 5.90106C5.10691 3.42597 6.9016 1.52688 8.90681 1.52688V0C5.8896 0 3.58003 2.76196 3.58003 5.90106H5.10691ZM8.90681 1.52688C10.919 1.52688 12.7067 3.39516 12.7067 5.86238H14.2336C14.2336 2.71542 11.917 0 8.90681 0V1.52688ZM12.7067 5.86238C12.7067 8.33747 10.912 10.2366 8.90681 10.2366V11.7634C11.924 11.7634 14.2336 9.00148 14.2336 5.86238H12.7067ZM16.0323 20.4731H1.78136V22H16.0323V20.4731ZM1.78136 20.4731C1.74339 20.4731 1.68841 20.4571 1.63134 20.3933C1.57335 20.3285 1.52688 20.2259 1.52688 20.0992H0C0 21.0645 0.722399 22 1.78136 22V20.4731ZM1.52688 20.0992V18.9618H0V20.0992H1.52688ZM1.52688 18.9618C1.52688 16.7993 3.0948 15.1756 4.83512 15.1756V13.6487C2.09659 13.6487 0 16.1197 0 18.9618H1.52688ZM4.83512 15.1756H12.9785V13.6487H4.83512V15.1756ZM12.9785 15.1756C14.7188 15.1756 16.2867 16.7993 16.2867 18.9618H17.8136C17.8136 16.1197 15.717 13.6487 12.9785 13.6487V15.1756ZM16.2867 18.9618V20.0992H17.8136V18.9618H16.2867ZM16.2867 20.0992C16.2867 20.2259 16.2403 20.3285 16.1823 20.3933C16.1252 20.4571 16.0702 20.4731 16.0323 20.4731V22C17.0912 22 17.8136 21.0645 17.8136 20.0992H16.2867Z" fill="#007AFF"/>
</svg>
