<svg width="20" height="26" viewBox="0 0 20 26" fill="none" xmlns="http://www.w3.org/2000/svg">
<path d="M2.5 2H18V23L10 18.5L2 23L2.5 2Z" fill="#2474CC"/>
<path fill-rule="evenodd" clip-rule="evenodd" d="M8.77417 18.6791C9.55881 18.2195 10.5163 18.221 11.2996 18.683L17.4258 22.2967V5.17941C17.4258 4.00507 17.0796 3.56996 16.7885 3.33702C16.3773 3.00807 15.5502 2.68806 14.0942 2.68806H5.90968C4.49147 2.68806 3.62919 2.9891 3.18707 3.3198C2.88541 3.54543 2.57419 3.91761 2.57419 4.93283V22.3108L8.77417 18.6791ZM18.1768 25.827L10.0335 21.0235L1.81935 25.8351C1.00516 26.312 0 25.6976 0 24.7221V4.93283C0 1.38109 2.53161 0 5.90968 0H14.0942C17.5794 0 20 1.48214 20 5.17941V24.7154C20 25.6922 18.9923 26.3066 18.1768 25.827Z" fill="#007AFF"/>
</svg>
