<svg width="16" height="21" viewBox="0 0 16 21" fill="none" xmlns="http://www.w3.org/2000/svg">
<path fill-rule="evenodd" clip-rule="evenodd" d="M7.01933 15.087C7.64705 14.7157 8.41305 14.7169 9.03971 15.0901L13.9406 18.0089V4.18337C13.9406 3.23486 13.6637 2.88343 13.4308 2.69528C13.1018 2.42959 12.4402 2.17113 11.2754 2.17113H4.72774C3.59318 2.17113 2.90336 2.41427 2.54965 2.68138C2.30833 2.86362 2.05935 3.16422 2.05935 3.98421V18.0203L7.01933 15.087ZM14.5414 20.8602L8.02684 16.9805L1.45548 20.8668C0.804129 21.252 0 20.7558 0 19.9678V3.98421C0 1.11549 2.02529 0 4.72774 0H11.2754C14.0635 0 16 1.19711 16 4.18337V19.9624C16 20.7514 15.1938 21.2477 14.5414 20.8602Z" fill="#131313"/>
</svg>
