<svg width="20" height="20" viewBox="0 0 20 20" fill="none" xmlns="http://www.w3.org/2000/svg">
<path fill-rule="evenodd" clip-rule="evenodd" d="M4.04508 6.66666C3.19176 6.66666 2.5 7.35842 2.5 8.21175V12.3809C2.5 13.5779 2.5 14.1764 2.66835 14.6575C2.96989 15.5192 3.64742 16.1968 4.50916 16.4983C4.99028 16.6667 5.58876 16.6667 6.78571 16.6667H13.2143C14.4112 16.6667 15.0097 16.6667 15.4908 16.4983C16.3526 16.1968 17.0301 15.5192 17.3316 14.6575C17.5 14.1764 17.5 13.5779 17.5 12.3809V8.21175C17.5 7.35842 16.8082 6.66666 15.9549 6.66666C15.3697 6.66666 14.8347 6.33601 14.5729 5.81256L13.8889 4.44444L13.8836 4.43394C13.5448 3.76089 12.8564 3.33543 12.1028 3.33334L12.0911 3.33333H7.90893L7.89719 3.33334C7.14364 3.33543 6.45523 3.76089 6.11637 4.43394L6.11111 4.44444L5.42705 5.81256C5.16533 6.33601 4.63032 6.66666 4.04508 6.66666ZM11.3333 10.8333C11.3333 11.5697 10.7364 12.1667 10 12.1667C9.26362 12.1667 8.66667 11.5697 8.66667 10.8333C8.66667 10.0969 9.26362 9.49999 10 9.49999C10.7364 9.49999 11.3333 10.0969 11.3333 10.8333ZM13.3333 10.8333C13.3333 12.6743 11.8409 14.1667 10 14.1667C8.15905 14.1667 6.66667 12.6743 6.66667 10.8333C6.66667 8.99238 8.15905 7.49999 10 7.49999C11.8409 7.49999 13.3333 8.99238 13.3333 10.8333Z" fill="#007AFF"/>
</svg>
