<svg width="20" height="20" viewBox="0 0 20 20" fill="none" xmlns="http://www.w3.org/2000/svg">
<g clip-path="url(#clip0_142_1998)">
<path d="M9.95 5.41667C13.0925 5.41667 15.8951 7.19167 17.2632 10C15.8951 12.8083 13.1008 14.5833 9.95 14.5833C6.79916 14.5833 4.00487 12.8083 2.63675 10C4.00487 7.19167 6.80745 5.41667 9.95 5.41667ZM9.95 3.75C5.80416 3.75 2.26362 6.34167 0.829163 10C2.26362 13.6583 5.80416 16.25 9.95 16.25C14.0958 16.25 17.6364 13.6583 19.0708 10C17.6364 6.34167 14.0958 3.75 9.95 3.75ZM9.95 7.91667C11.0942 7.91667 12.0229 8.85 12.0229 10C12.0229 11.15 11.0942 12.0833 9.95 12.0833C8.80575 12.0833 7.87708 11.15 7.87708 10C7.87708 8.85 8.80575 7.91667 9.95 7.91667ZM9.95 6.25C7.89366 6.25 6.21875 7.93333 6.21875 10C6.21875 12.0667 7.89366 13.75 9.95 13.75C12.0063 13.75 13.6812 12.0667 13.6812 10C13.6812 7.93333 12.0063 6.25 9.95 6.25Z" fill="#479037"/>
</g>
<defs>
<clipPath id="clip0_142_1998">
<rect width="19.9" height="20" fill="white"/>
</clipPath>
</defs>
</svg>
