<svg width="28" height="27" viewBox="0 0 28 27" fill="none" xmlns="http://www.w3.org/2000/svg">
<path d="M4.86632 15.6959C4.0298 14.3515 4.0298 12.6485 4.86632 11.3041C5.11095 10.911 5.50845 10.6377 5.96311 10.55L7.98569 10.1599C8.10291 10.1373 8.20912 10.0759 8.28718 9.98554L11.1894 6.62724C12.3686 5.26279 12.9582 4.58056 13.4791 4.77447C14 4.96837 14 5.87006 14 7.67342L14 19.3266C14 21.1299 14 22.0316 13.4791 22.2255C12.9582 22.4194 12.3686 21.7372 11.1894 20.3728L8.28718 17.0145C8.20912 16.9241 8.10291 16.8627 7.98569 16.8401L5.96311 16.45C5.50845 16.3623 5.11095 16.089 4.86632 15.6959Z" fill="white"/>
<path d="M16.9581 9.52252C18.0465 10.572 18.6606 11.9937 18.6666 13.4778C18.6727 14.962 18.0702 16.3883 16.9905 17.446" stroke="white" stroke-width="2" stroke-linecap="round"/>
<path d="M21.7665 7.13604C23.5078 8.81518 24.4904 11.0899 24.5001 13.4645C24.5098 15.8392 23.5458 18.1213 21.8183 19.8136" stroke="white" stroke-width="2" stroke-linecap="round"/>
</svg>
