<svg width="71" height="49" viewBox="0 0 71 49" fill="none" xmlns="http://www.w3.org/2000/svg">
<path fill-rule="evenodd" clip-rule="evenodd" d="M69.9975 1.06611C71.3587 2.46243 71.3303 4.69788 69.934 6.05914L28.2622 46.6846C28.2392 46.707 28.2151 46.7306 28.19 46.7552C27.8923 47.0462 27.4496 47.479 27.0034 47.8076C26.4376 48.2242 25.4223 48.8176 24.0389 48.7372C22.6554 48.6568 21.7157 47.9498 21.202 47.4705C20.7968 47.0924 20.4072 46.6112 20.1452 46.2877C20.1231 46.2603 20.1019 46.2341 20.0817 46.2092L0.789593 22.451C-0.439657 20.9371 -0.208964 18.7134 1.30486 17.4842C2.81868 16.255 5.04238 16.4856 6.27163 17.9995L24.5192 40.4714L65.0044 1.00263C66.4007 -0.358622 68.6362 -0.330201 69.9975 1.06611Z" fill="white"/>
</svg>
