<svg width="16" height="19" viewBox="0 0 16 19" fill="none" xmlns="http://www.w3.org/2000/svg">
<path d="M8.00008 18.2858C9.26151 18.2858 10.2847 17.2626 10.2847 16.0001H5.71542C5.71542 17.2626 6.73864 18.2858 8.00008 18.2858ZM15.6926 12.939C15.0026 12.1976 13.7115 11.0822 13.7115 7.42862C13.7115 4.6536 11.7658 2.43216 9.14223 1.88716V1.14286C9.14223 0.511789 8.6308 0 8.00008 0C7.36936 0 6.85793 0.511789 6.85793 1.14286V1.88716C4.23434 2.43216 2.28861 4.6536 2.28861 7.42862C2.28861 11.0822 0.997531 12.1976 0.307527 12.939C0.0932396 13.1694 -0.00176103 13.4447 2.46926e-05 13.7144C0.00395329 14.3001 0.463599 14.8572 1.14646 14.8572H14.8537C15.5366 14.8572 15.9966 14.3001 16.0001 13.7144C16.0019 13.4447 15.9069 13.169 15.6926 12.939Z" fill="white"/>
</svg>
