<svg width="24" height="27" viewBox="0 0 24 27" fill="none" xmlns="http://www.w3.org/2000/svg">
<path d="M13.7678 11.4332C14.7441 12.5241 14.7441 14.2928 13.7678 15.3837C12.7915 16.4746 11.2085 16.4746 10.2322 15.3837C9.25592 14.2928 9.25592 12.5241 10.2322 11.4332C11.2085 10.3423 12.7915 10.3423 13.7678 11.4332" stroke="#007AFF" stroke-width="1.5" stroke-linecap="round" stroke-linejoin="round"/>
<path fill-rule="evenodd" clip-rule="evenodd" d="M14.8492 4.60358L15.4322 4.82035C15.9662 5.01924 16.3272 5.57792 16.3272 6.207V7.14224C16.3272 7.93781 16.8952 8.587 17.6072 8.60376L18.4452 8.62388C18.9302 8.63505 19.3702 8.9468 19.5872 9.43174L19.8622 10.0463C20.1142 10.6094 20.0152 11.2888 19.6172 11.7335L19.0252 12.395C18.5222 12.957 18.5132 13.8655 19.0052 14.4398L19.5852 15.1169C19.9212 15.5091 20.0352 16.0756 19.8812 16.5907L19.6872 17.2422C19.5092 17.8388 19.0092 18.2422 18.4462 18.2422H17.6092C16.8972 18.2422 16.3162 18.8769 16.3012 19.6724L16.2832 20.6088C16.2732 21.1507 15.9942 21.6424 15.5602 21.8848L15.0102 22.1921C14.5062 22.4737 13.8982 22.3631 13.5002 21.9184L12.9082 21.2569C12.4052 20.6948 11.5922 20.6848 11.0782 21.2345L10.4722 21.8826C10.1212 22.258 9.61415 22.3854 9.15315 22.2133L8.57015 21.9966C8.03615 21.7977 7.67515 21.239 7.67515 20.6099V19.6747C7.67515 18.8791 7.10715 18.2299 6.39515 18.2132L5.55715 18.193C5.07215 18.1819 4.63215 17.8701 4.41515 17.3852L4.14015 16.7706C3.88815 16.2075 3.98715 15.5281 4.38515 15.0834L4.97715 14.4219C5.48015 13.8599 5.48915 12.9515 4.99715 12.3771L4.41715 11.7C4.08015 11.3067 3.96615 10.7391 4.12015 10.2251L4.31415 9.57364C4.49215 8.97697 4.99215 8.57359 5.55515 8.57359H6.39215C7.10415 8.57359 7.68515 7.93893 7.70015 7.14336L7.71815 6.207C7.73015 5.66508 8.00815 5.17344 8.44215 4.93097L8.99215 4.62369C9.49615 4.34211 10.1042 4.45273 10.5022 4.89744L11.0942 5.55893C11.5972 6.12097 12.4102 6.13102 12.9242 5.58128L13.5302 4.9332C13.8812 4.55888 14.3892 4.4315 14.8492 4.60358V4.60358Z" stroke="#007AFF" stroke-width="1.5" stroke-linecap="round" stroke-linejoin="round"/>
</svg>
