<svg width="32" height="24" viewBox="0 0 32 24" fill="none" xmlns="http://www.w3.org/2000/svg">
<mask id="mask0_0_3113" style="mask-type:luminance" maskUnits="userSpaceOnUse" x="0" y="0" width="32" height="24">
<path d="M32 0H0V24H32V0Z" fill="white"/>
</mask>
<g mask="url(#mask0_0_3113)">
<path d="M32 0H0V24H32V0Z" fill="#D00027"/>
</g>
<mask id="mask1_0_3113" style="mask-type:luminance" maskUnits="userSpaceOnUse" x="0" y="0" width="32" height="24">
<path d="M32 0H0V24H32V0Z" fill="white"/>
</mask>
<g mask="url(#mask1_0_3113)">
<mask id="mask2_0_3113" style="mask-type:luminance" maskUnits="userSpaceOnUse" x="0" y="0" width="32" height="24">
<path d="M32 0H0V24H32V0Z" fill="white"/>
</mask>
<g mask="url(#mask2_0_3113)">
<path d="M9.33311 5.9994C11.9102 5.9994 14.0011 8.68475 14.0011 11.9988C14.0011 15.3117 11.9102 17.9982 9.33311 17.9982C6.75694 17.9982 4.66797 15.3129 4.66797 11.9988C4.66797 8.68475 6.75694 5.9994 9.33311 5.9994Z" fill="white"/>
</g>
<mask id="mask3_0_3113" style="mask-type:luminance" maskUnits="userSpaceOnUse" x="0" y="0" width="32" height="24">
<path d="M32 0H0V24H32V0Z" fill="white"/>
</mask>
<g mask="url(#mask3_0_3113)">
<path d="M10.4993 7.19556C12.5634 7.19556 14.2329 9.35019 14.2329 11.9975C14.2329 14.6497 12.5634 16.7995 10.4993 16.7995C8.43794 16.7995 6.76562 14.6497 6.76562 11.9975C6.76562 9.35019 8.43794 7.19556 10.4993 7.19556Z" fill="#D00027"/>
</g>
<mask id="mask4_0_3113" style="mask-type:luminance" maskUnits="userSpaceOnUse" x="0" y="0" width="32" height="24">
<path d="M32 0H0V24H32V0Z" fill="white"/>
</mask>
<g mask="url(#mask4_0_3113)">
<path d="M13.2773 11.9976L15.4941 12.9266L15.8545 11.4951L13.2773 11.9976Z" fill="white"/>
</g>
<mask id="mask5_0_3113" style="mask-type:luminance" maskUnits="userSpaceOnUse" x="0" y="0" width="32" height="24">
<path d="M32 0H0V24H32V0Z" fill="white"/>
</mask>
<g mask="url(#mask5_0_3113)">
<path d="M13.2773 11.9976L15.4941 11.0735L15.8545 12.5001L13.2773 11.9976Z" fill="white"/>
</g>
<mask id="mask6_0_3113" style="mask-type:luminance" maskUnits="userSpaceOnUse" x="0" y="0" width="32" height="24">
<path d="M32 0H0V24H32V0Z" fill="white"/>
</mask>
<g mask="url(#mask6_0_3113)">
<path d="M14.8887 9.14432V12.1459H16.0547L14.8887 9.14432Z" fill="white"/>
</g>
<mask id="mask7_0_3113" style="mask-type:luminance" maskUnits="userSpaceOnUse" x="0" y="0" width="32" height="24">
<path d="M32 0H0V24H32V0Z" fill="white"/>
</mask>
<g mask="url(#mask7_0_3113)">
<path d="M14.8887 9.14432L16.2588 11.571L15.3177 12.4523L14.8887 9.14432Z" fill="white"/>
</g>
<mask id="mask8_0_3113" style="mask-type:luminance" maskUnits="userSpaceOnUse" x="0" y="0" width="32" height="24">
<path d="M32 0H0V24H32V0Z" fill="white"/>
</mask>
<g mask="url(#mask8_0_3113)">
<path d="M14.8887 14.8556L16.2588 12.424L15.3177 11.5428L14.8887 14.8556Z" fill="white"/>
</g>
<mask id="mask9_0_3113" style="mask-type:luminance" maskUnits="userSpaceOnUse" x="0" y="0" width="32" height="24">
<path d="M32 0H0V24H32V0Z" fill="white"/>
</mask>
<g mask="url(#mask9_0_3113)">
<path d="M14.8887 14.8557V11.8492H16.0547L14.8887 14.8557Z" fill="white"/>
</g>
<mask id="mask10_0_3113" style="mask-type:luminance" maskUnits="userSpaceOnUse" x="0" y="0" width="32" height="24">
<path d="M32 0H0V24H32V0Z" fill="white"/>
</mask>
<g mask="url(#mask10_0_3113)">
<path d="M17.496 10.2412L15.2803 11.1604L15.6407 12.587L17.496 10.2412Z" fill="white"/>
</g>
<mask id="mask11_0_3113" style="mask-type:luminance" maskUnits="userSpaceOnUse" x="0" y="0" width="32" height="24">
<path d="M32 0H0V24H32V0Z" fill="white"/>
</mask>
<g mask="url(#mask11_0_3113)">
<path d="M17.4965 10.2412L16.1265 12.663L15.1807 11.7818L17.4965 10.2412Z" fill="white"/>
</g>
<mask id="mask12_0_3113" style="mask-type:luminance" maskUnits="userSpaceOnUse" x="0" y="0" width="32" height="24">
<path d="M32 0H0V24H32V0Z" fill="white"/>
</mask>
<g mask="url(#mask12_0_3113)">
<path d="M17.4965 13.7649L16.1265 11.3369L15.1807 12.2182L17.4965 13.7649Z" fill="white"/>
</g>
<mask id="mask13_0_3113" style="mask-type:luminance" maskUnits="userSpaceOnUse" x="0" y="0" width="32" height="24">
<path d="M32 0H0V24H32V0Z" fill="white"/>
</mask>
<g mask="url(#mask13_0_3113)">
<path d="M17.496 13.7648L15.2803 12.8358L15.6407 11.4092L17.496 13.7648Z" fill="white"/>
</g>
</g>
</svg>
