<svg width="32" height="24" viewBox="0 0 32 24" fill="none" xmlns="http://www.w3.org/2000/svg">
<mask id="mask0_0_3244" style="mask-type:luminance" maskUnits="userSpaceOnUse" x="0" y="0" width="32" height="24">
<path d="M32 0H0V24H32V0Z" fill="white"/>
</mask>
<g mask="url(#mask0_0_3244)">
<path d="M32 0H0V24H32V0Z" fill="white"/>
</g>
<mask id="mask1_0_3244" style="mask-type:luminance" maskUnits="userSpaceOnUse" x="0" y="0" width="32" height="24">
<path d="M32 0H0V24H32V0Z" fill="white"/>
</mask>
<g mask="url(#mask1_0_3244)">
<path d="M21.4249 8.67832L31.9985 1.06779V0H31.27L19.2139 8.67832H21.4249Z" fill="#BD0034"/>
</g>
<mask id="mask2_0_3244" style="mask-type:luminance" maskUnits="userSpaceOnUse" x="0" y="0" width="32" height="24">
<path d="M32 0H0V24H32V0Z" fill="white"/>
</mask>
<g mask="url(#mask2_0_3244)">
<path d="M20.9268 15.8046L31.999 23.7719V22.1794L23.1387 15.8046H20.9268Z" fill="#BD0034"/>
</g>
<mask id="mask3_0_3244" style="mask-type:luminance" maskUnits="userSpaceOnUse" x="0" y="0" width="32" height="24">
<path d="M32 0H0V24H32V0Z" fill="white"/>
</mask>
<g mask="url(#mask3_0_3244)">
<path d="M0 1.82786L9.47138 8.67833H11.6853L0 0.234131V1.82786Z" fill="#BD0034"/>
</g>
<mask id="mask4_0_3244" style="mask-type:luminance" maskUnits="userSpaceOnUse" x="0" y="0" width="32" height="24">
<path d="M32 0H0V24H32V0Z" fill="white"/>
</mask>
<g mask="url(#mask4_0_3244)">
<path d="M11.1828 15.8046L0 23.8614V24.0012H2.02031L13.3967 15.8046H11.1828Z" fill="#BD0034"/>
</g>
<mask id="mask5_0_3244" style="mask-type:luminance" maskUnits="userSpaceOnUse" x="0" y="0" width="32" height="24">
<path d="M32 0H0V24H32V0Z" fill="white"/>
</mask>
<g mask="url(#mask5_0_3244)">
<path d="M29.8092 0H18.6055V8.06783L29.8092 0Z" fill="#1A237B"/>
</g>
<mask id="mask6_0_3244" style="mask-type:luminance" maskUnits="userSpaceOnUse" x="0" y="0" width="32" height="24">
<path d="M32 0H0V24H32V0Z" fill="white"/>
</mask>
<g mask="url(#mask6_0_3244)">
<path d="M13.6589 0H2.5L13.6589 8.06783V0Z" fill="#1A237B"/>
</g>
<mask id="mask7_0_3244" style="mask-type:luminance" maskUnits="userSpaceOnUse" x="0" y="0" width="32" height="24">
<path d="M32 0H0V24H32V0Z" fill="white"/>
</mask>
<g mask="url(#mask7_0_3244)">
<path d="M31.9992 8.67832V3.17145L24.3994 8.67832H31.9992Z" fill="#1A237B"/>
</g>
<mask id="mask8_0_3244" style="mask-type:luminance" maskUnits="userSpaceOnUse" x="0" y="0" width="32" height="24">
<path d="M32 0H0V24H32V0Z" fill="white"/>
</mask>
<g mask="url(#mask8_0_3244)">
<path d="M31.9992 21.2514V15.8046H24.3994L31.9992 21.2514Z" fill="#1A237B"/>
</g>
<mask id="mask9_0_3244" style="mask-type:luminance" maskUnits="userSpaceOnUse" x="0" y="0" width="32" height="24">
<path d="M32 0H0V24H32V0Z" fill="white"/>
</mask>
<g mask="url(#mask9_0_3244)">
<path d="M3.13281 24.0012H13.6587V16.4164L3.13281 24.0012Z" fill="#1A237B"/>
</g>
<mask id="mask10_0_3244" style="mask-type:luminance" maskUnits="userSpaceOnUse" x="0" y="0" width="32" height="24">
<path d="M32 0H0V24H32V0Z" fill="white"/>
</mask>
<g mask="url(#mask10_0_3244)">
<path d="M18.6055 24.0012H29.1657L18.6055 16.4164V24.0012Z" fill="#1A237B"/>
</g>
<mask id="mask11_0_3244" style="mask-type:luminance" maskUnits="userSpaceOnUse" x="0" y="0" width="32" height="24">
<path d="M32 0H0V24H32V0Z" fill="white"/>
</mask>
<g mask="url(#mask11_0_3244)">
<path d="M0 15.8046V21.4978L7.86485 15.8046H0Z" fill="#1A237B"/>
</g>
<mask id="mask12_0_3244" style="mask-type:luminance" maskUnits="userSpaceOnUse" x="0" y="0" width="32" height="24">
<path d="M32 0H0V24H32V0Z" fill="white"/>
</mask>
<g mask="url(#mask12_0_3244)">
<path d="M0 8.67833H7.86485L0 2.97653V8.67833Z" fill="#1A237B"/>
</g>
<mask id="mask13_0_3244" style="mask-type:luminance" maskUnits="userSpaceOnUse" x="0" y="0" width="32" height="24">
<path d="M32 0H0V24H32V0Z" fill="white"/>
</mask>
<g mask="url(#mask13_0_3244)">
<path d="M14.6485 0V10.1041H0V14.3826H14.6485V24.0012H17.6156V14.3826H31.9991V10.1041H17.6156V0H14.6485Z" fill="#BD0034"/>
</g>
</svg>
