<svg width="27" height="21" viewBox="0 0 27 21" fill="none" xmlns="http://www.w3.org/2000/svg">
<path d="M19.9126 0.5H19.9125H3.04539L2.85452 0.506025C2.21209 0.550933 1.61354 0.830111 1.17789 1.28377C0.740738 1.73899 0.499922 2.33582 0.5 2.95306V2.95312V16.7274L0.506336 16.9541C0.563859 17.9074 0.993506 18.8065 1.71224 19.4667C2.43322 20.129 3.39024 20.5001 4.38747 20.5H4.3875H22.6059L22.8403 20.4938C23.8333 20.4373 24.7639 20.0145 25.4431 19.3157C26.1234 18.6157 26.5001 17.6919 26.5 16.7344V16.7344V6.90004L26.4926 6.70397C26.4481 6.13997 26.203 5.60609 25.7958 5.19472C25.5178 4.91386 25.176 4.70221 24.8 4.57507V17.7188V17.7416L24.7979 17.7643L24.7871 17.8824L24.785 17.9056L24.7808 17.9284C24.7271 18.2164 24.5651 18.471 24.3312 18.6441C24.0977 18.8169 23.8084 18.897 23.5201 18.8716C23.2317 18.8461 22.9606 18.7165 22.7615 18.5041C22.562 18.2914 22.4494 18.011 22.45 17.7178M19.9126 0.5L22.95 17.7188M19.9126 0.5C20.5597 0.499923 21.1805 0.738833 21.6497 1.16477C22.1163 1.58832 22.3983 2.16477 22.4439 2.7774M19.9126 0.5L22.4439 2.7774M22.45 17.7178L22.95 17.7188M22.45 17.7178V17.7188H22.95M22.45 17.7178V2.96147M22.95 17.7188V2.95312M22.45 2.96147L22.4503 2.96981L22.95 2.95312M22.45 2.96147L22.4439 2.7774M22.45 2.96147V2.95312H22.95M22.95 2.95312L22.4439 2.7774M14.5004 8.69409L14.5142 8.69406L17.8865 8.6875L17.8875 8.6875L17.8883 8.6875H17.8889V9.1875L14.5004 8.69409ZM14.5004 8.69409L14.4867 8.69488M14.5004 8.69409L14.4867 8.69488M14.4867 8.69488L14.349 8.70275L14.3326 8.70368M14.4867 8.69488L14.3326 8.70368M14.3326 8.70368L14.3164 8.70568M14.3326 8.70368L14.3164 8.70568M14.3164 8.70568C13.9371 8.75235 13.5873 8.93874 13.3403 9.23098M14.3164 8.70568L13.3403 9.23098M13.3403 9.23098C13.093 9.52366 12.9685 9.89994 12.9959 10.2826M13.3403 9.23098L12.9959 10.2826M12.9959 10.2826C13.0232 10.6651 13.2 11.0199 13.4854 11.2753M12.9959 10.2826L13.4854 11.2753M13.4854 11.2753C13.7696 11.5296 14.1402 11.6669 14.5213 11.6628M13.4854 11.2753L14.5213 11.6628M14.5213 11.6628C14.5223 11.6628 14.5233 11.6628 14.5243 11.6628L14.5213 11.6628ZM24.3 4.45939V3.95587C24.4701 3.97436 24.6373 4.00668 24.8 4.05205L24.3 4.45939ZM17.8903 13.2812H17.8902H14.5179H14.5012L14.4846 13.2824L14.3469 13.2915L14.3304 13.2927L14.3139 13.2949C13.9382 13.3451 13.5928 13.5325 13.3493 13.8236C13.1054 14.115 12.9826 14.4882 13.0093 14.8678C13.036 15.2472 13.2096 15.5996 13.4908 15.855C13.7715 16.11 14.1387 16.2499 14.5178 16.25H14.5179H17.8902H17.9069L17.9235 16.2489L18.0612 16.2397L18.0777 16.2386L18.0942 16.2364C18.4699 16.1861 18.8153 15.9987 19.0588 15.7077C19.3027 15.4162 19.4255 15.043 19.3988 14.6635C19.3721 14.284 19.1985 13.9316 18.9173 13.6762C18.6366 13.4212 18.2694 13.2814 17.8903 13.2812ZM3.99532 9.11732L4.34385 9.47582L3.99532 9.11732C3.71018 9.39454 3.5473 9.77358 3.5473 10.1719V14.7656C3.5473 15.5983 4.23813 16.25 5.0598 16.25H9.7848C10.1815 16.25 10.5646 16.0969 10.8493 15.8202C11.1344 15.543 11.2973 15.1639 11.2973 14.7656V10.1719C11.2973 9.77357 11.1344 9.39454 10.8493 9.11732C10.5646 8.84057 10.1815 8.6875 9.7848 8.6875H5.0598C4.66313 8.6875 4.27998 8.84056 3.99532 9.11732ZM5.0598 4.099H5.04314L5.02652 4.10011L4.88881 4.1093L4.87226 4.1104L4.85581 4.1126C4.48007 4.16286 4.13473 4.35029 3.89122 4.6413C3.64734 4.93277 3.52452 5.30598 3.5512 5.68552C3.57786 6.06496 3.75155 6.41739 4.0327 6.67277C4.31344 6.92778 4.68065 7.06764 5.05965 7.06775H5.0598H17.8902H17.9045L17.9187 7.06693L18.0564 7.05906L18.0728 7.05812L18.0891 7.05612C18.468 7.00939 18.8175 6.82326 19.0643 6.53148C19.3115 6.23924 19.4363 5.86353 19.4094 5.48125C19.3826 5.09907 19.2066 4.74443 18.9221 4.48869C18.6382 4.23349 18.2667 4.09591 17.8866 4.099H5.0598ZM8.2723 11.6562V13.2812H6.5723V11.6562H8.2723Z" stroke="#9DB2CE"/>
</svg>
