<svg width="25" height="25" viewBox="0 0 25 25" fill="none" xmlns="http://www.w3.org/2000/svg">
<g clip-path="url(#clip0_2108_4672)">
<path d="M20.8751 7.10417L14.8751 2.90626C13.2397 1.76042 10.7292 1.82292 9.15633 3.04167L3.93758 7.11459C2.89591 7.92709 2.073 9.59376 2.073 10.9063V18.0938C2.073 20.75 4.22925 22.9167 6.8855 22.9167H18.1147C20.7709 22.9167 22.9272 20.7604 22.9272 18.1042V11.0417C22.9272 9.63542 22.0209 7.90626 20.8751 7.10417ZM13.2813 18.75C13.2813 19.1771 12.9272 19.5313 12.5001 19.5313C12.073 19.5313 11.7188 19.1771 11.7188 18.75V15.625C11.7188 15.1979 12.073 14.8438 12.5001 14.8438C12.9272 14.8438 13.2813 15.1979 13.2813 15.625V18.75Z" fill="#007AFF"/>
</g>
<defs>
<clipPath id="clip0_2108_4672">
<rect width="25" height="25" fill="white"/>
</clipPath>
</defs>
</svg>
